<svg xmlns="http://www.w3.org/2000/svg" width="840" height="440" viewBox="0 0 840 440" role="img" aria-label="Method loop for Idea 2: multi-objective coevolutionary planner with replanning">
  <defs>
    <marker id="arr2" viewBox="0 0 10 10" refX="9" refY="5" markerWidth="8" markerHeight="8" orient="auto-start-reverse">
      <path d="M0,0 L10,5 L0,10 z" fill="#33393f"/>
    </marker>
  </defs>
  <rect width="840" height="440" rx="16" fill="#f7f9fc"/>
  <text x="20" y="36" font-family="'Segoe UI', Roboto, Helvetica, Arial, sans-serif" font-size="20" font-weight="700" fill="#1f2a37">Idea 2 — Multi-objective coevolutionary planner with replanning</text>
  <g font-family="'Segoe UI', Roboto, Helvetica, Arial, sans-serif" text-anchor="middle">
    <rect x="60" y="100" width="190" height="84" rx="12" fill="#ffffff" stroke="#2e7d32" stroke-width="2.5"/>
    <text x="155" y="132" font-size="15" font-weight="700" fill="#1f2a37">Exploration tasks</text>
    <text x="155" y="154" font-size="12" fill="#5d666e">rovers + lander</text>
    <rect x="290" y="100" width="230" height="84" rx="12" fill="#ffffff" stroke="#6a1b9a" stroke-width="2.5"/>
    <text x="405" y="126" font-size="14" font-weight="700" fill="#1f2a37">Two coevolving populations</text>
    <text x="405" y="148" font-size="12" fill="#5d666e">elite + exploratory</text>
    <text x="405" y="164" font-size="11" fill="#5d666e">adaptive operator pool</text>
    <rect x="560" y="100" width="220" height="84" rx="12" fill="#ffffff" stroke="#ef6c00" stroke-width="2.5"/>
    <text x="670" y="132" font-size="15" font-weight="700" fill="#1f2a37">Pareto front</text>
    <text x="670" y="154" font-size="12" fill="#5d666e">energy vs science return</text>
  </g>
  <g stroke="#33393f" stroke-width="2" fill="none">
    <line x1="250" y1="142" x2="290" y2="142" marker-end="url(#arr2)"/>
    <line x1="520" y1="142" x2="560" y2="142" marker-end="url(#arr2)"/>
    <line x1="405" y1="184" x2="405" y2="260" marker-end="url(#arr2)"/>
    <path d="M520 290 C580 290 580 180 521 160" marker-end="url(#arr2)"/>
  </g>
  <rect x="290" y="260" width="230" height="70" rx="12" fill="#ffffff" stroke="#c0392b" stroke-width="2.5"/>
  <text x="405" y="288" text-anchor="middle" font-family="'Segoe UI', Roboto, Helvetica, Arial, sans-serif" font-size="14" font-weight="700" fill="#1f2a37">Rover failure or recharge need</text>
  <text x="405" y="308" text-anchor="middle" font-family="'Segoe UI', Roboto, Helvetica, Arial, sans-serif" font-size="12" fill="#5d666e">simulated event</text>
  <text x="548" y="248" font-family="'Segoe UI', Roboto, Helvetica, Arial, sans-serif" font-size="12" fill="#6a1b9a">reallocate + resume</text>
  <rect x="26" y="360" width="788" height="56" rx="10" fill="#e8ecf1"/>
  <text x="420" y="384" text-anchor="middle" font-family="'Segoe UI', Roboto, Helvetica, Arial, sans-serif" font-size="14" fill="#1f2a37">Baselines: simulated annealing · genetic algorithm · swarm method (Milestones 3–5)</text>
  <text x="420" y="404" text-anchor="middle" font-family="'Segoe UI', Roboto, Helvetica, Arial, sans-serif" font-size="12" fill="#5d666e">Milestone 6 adds coevolution + replanning above</text>
</svg>
